# xmcd
#
# Track frame offsets: 
#        150
#        15950
#        28182
#        40220
#        53275
#        60592
#        78520
#        91112
#        109917
#        123345
#
# Disc length: 1833 seconds
#
# Revision: 2
# Processed by: cddbd v1.4PL0 Copyright (c) Steve Scherf et al.
# Submitted via: ExactAudioCopy v0.90b4
#
DISCID=6d07270a
DTITLE=Johnny Cash - Patriot
DYEAR=1900
DGENRE=Country
TTITLE0=Song Of The Patriot
TTITLE1=Paul Revere (With Dialogue)
TTITLE2=Gettysburg Address (With Dialogue)
TTITLE3=Man In Black
TTITLE4=From Sea To Shining Sea
TTITLE5=Mr Garfield
TTITLE6=Sold Out Of Flag Poles
TTITLE7=The Ballad Of Ira Hayes
TTITLE8=Singing In Vietnam Talking Blues
TTITLE9=Ragged Old Flag
EXTD=
EXTT0=
EXTT1=
EXTT2=
EXTT3=
EXTT4=
EXTT5=
EXTT6=
EXTT7=
EXTT8=
EXTT9=
PLAYORDER=
